<?xml version="1.0" standalone="no"?>
<!DOCTYPE svg PUBLIC "-//W3C//DTD SVG 20010904//EN"
 "http://www.w3.org/TR/2001/REC-SVG-20010904/DTD/svg10.dtd">
<svg version="1.0" xmlns="http://www.w3.org/2000/svg"
 width="225.000000pt" height="225.000000pt" viewBox="0 0 225.000000 225.000000"
 preserveAspectRatio="xMidYMid meet">

<g transform="translate(0.000000,225.000000) scale(0.100000,-0.100000)"
fill="#000000" stroke="none">
<path d="M952 2061 c-114 -33 -191 -80 -283 -171 -73 -72 -93 -100 -132 -180
-59 -121 -82 -230 -74 -348 6 -82 5 -85 -19 -104 -13 -11 -33 -37 -44 -59 -19
-36 -20 -60 -20 -429 0 -340 2 -395 16 -423 23 -45 53 -76 96 -98 35 -18 67
-19 633 -19 566 0 598 1 633 19 43 22 73 53 96 98 14 28 16 83 16 423 0 369
-1 393 -20 429 -11 22 -31 48 -44 59 -24 19 -25 22 -19 104 21 296 -175 591
-457 689 -91 32 -287 37 -378 10z m351 -264 c84 -42 152 -108 194 -190 34 -68
56 -179 48 -244 l-6 -53 -414 0 -414 0 -6 53 c-13 108 34 248 115 340 83 94
192 139 322 134 76 -3 95 -8 161 -40z m-105 -762 c126 -53 157 -206 62 -306
-37 -40 -38 -42 -42 -129 -3 -77 -6 -92 -27 -114 -34 -36 -98 -36 -132 0 -21
22 -24 37 -27 114 -4 87 -5 90 -42 128 -74 79 -74 199 2 269 54 51 138 66 206
38z"/>
</g>
</svg>
